<?xml version="1.0" encoding="UTF-8"?>
<svg version="1.1" xmlns="http://www.w3.org/2000/svg" width="500" height="500">
<path d="M0 0 C0.50904657 1.87256417 1.00682455 3.74819341 1.5 5.625 C1.7784375 6.66914063 2.056875 7.71328125 2.34375 8.7890625 C2.99269838 11.96427423 3.04730322 14.77155498 3 18 C2.23558594 18.35191406 1.47117187 18.70382813 0.68359375 19.06640625 C-19.34832465 28.28834235 -19.34832465 28.28834235 -39.12304688 38.04541016 C-42.73838706 39.88411725 -46.37085069 41.68875145 -50 43.5 C-52.31 44.655 -54.62 45.81 -57 47 C-56.67 52.94 -56.34 58.88 -56 65 C-55.34 65 -54.68 65 -54 65 C-54.05542969 65.97324219 -54.11085937 66.94648438 -54.16796875 67.94921875 C-54.16218388 72.55281489 -52.82340902 76.50279882 -51.3125 80.8125 C-51.04356934 81.60060059 -50.77463867 82.38870117 -50.49755859 83.20068359 C-48.45461948 89.04572599 -46.06194445 94.60772614 -43 100 C-43.31453125 99.175 -43.6290625 98.35 -43.953125 97.5 C-50.05065481 81.04401594 -53.22734641 65.61500784 -53 48 C-41.01682707 41.60700259 -28.95234329 35.43137752 -16.72802734 29.51245117 C-14.23502327 28.30524772 -11.74430584 27.09342534 -9.25390625 25.88085938 C-5.2634979 23.94034862 -1.26818647 22.01033438 2.73168945 20.0894165 C4.23809891 19.36592328 5.7438025 18.64095843 7.2487793 17.91448975 C9.33480132 16.90938206 11.424479 15.91236311 13.515625 14.91796875 C14.69930664 14.35231201 15.88298828 13.78665527 17.10253906 13.20385742 C20 12 20 12 23 12 C23.3396019 13.87387477 23.67138691 15.74916697 24 17.625 C24.185625 18.66914063 24.37125 19.71328125 24.5625 20.7890625 C24.98758902 23.90891229 25.03070286 26.85679493 25 30 C14.55573377 35.74572304 3.9461307 40.89439772 -6.9375 45.75 C-9.80185503 47.03407643 -12.66478625 48.32129728 -15.52734375 49.609375 C-16.19704193 49.90968628 -16.86674011 50.20999756 -17.55673218 50.51940918 C-21.03968225 52.087951 -24.47987805 53.71034775 -27.87890625 55.453125 C-31 57 -31 57 -33 57 C-29.71182967 85.57450322 -24.68485875 114.82858707 -5.21484375 137.30078125 C-4 139 -4 139 -4 142 C-6.05922133 142.53364887 -8.12256107 143.05142189 -10.1875 143.5625 C-11.33605469 143.85253906 -12.48460937 144.14257812 -13.66796875 144.44140625 C-17.02940691 145.00492988 -18.82555734 145.17361316 -22 144 C-30.29365397 137.32430925 -36.81280994 128.58528709 -43 120 C-43.76570313 118.96359375 -44.53140625 117.9271875 -45.3203125 116.859375 C-61.47654854 94.29305404 -80.46217281 60.46315583 -80 32 C-69.54980217 27.01981847 -58.90825201 22.6063034 -48.1875 18.25 C-44.72601834 16.83987412 -41.26523382 15.42804455 -37.8046875 14.015625 C-36.95926895 13.67084106 -36.1138504 13.32605713 -35.24281311 12.9708252 C-30.23358287 10.92443593 -25.23941733 8.84713885 -20.2578125 6.734375 C-18.59455933 6.03006348 -18.59455933 6.03006348 -16.89770508 5.31152344 C-14.89763344 4.46129119 -12.89990926 3.605507 -10.9050293 2.74316406 C-10.03531494 2.37416992 -9.16560059 2.00517578 -8.26953125 1.625 C-7.53323486 1.30789062 -6.79693848 0.99078125 -6.03833008 0.6640625 C-4 0 -4 0 0 0 Z M-37 112 C-36 114 -36 114 -36 114 Z " fill="#09A9DC" transform="translate(228,133)"/>
<path d="M0 0 C-0.08564209 0.62342285 -0.17128418 1.2468457 -0.25952148 1.88916016 C-4.84076139 34.69613302 -4.84076139 34.69613302 -3.046875 67.63671875 C-2.87768555 68.71324707 -2.70849609 69.78977539 -2.53417969 70.89892578 C-2.18560174 72.96331015 -1.79727224 75.02148638 -1.36425781 77.06982422 C-0.87706132 79.89818946 -0.587093 82.15750351 -1 85 C-3.19302803 88.05872558 -5.8792458 89.94630081 -9 92 C-9.59280762 92.43803955 -10.18561523 92.8760791 -10.79638672 93.32739258 C-12.47873483 94.56490559 -14.19294549 95.72710149 -15.9375 96.875 C-16.56575684 97.29136719 -17.19401367 97.70773437 -17.84130859 98.13671875 C-40.59661581 112.9162266 -40.59661581 112.9162266 -48.015625 113.03125 C-51.22972445 111.3609306 -52.84267871 108.46856007 -54.75 105.5 C-55.18465576 104.83218506 -55.61931152 104.16437012 -56.06713867 103.47631836 C-69.9344614 81.61164038 -75.53993686 57.52677281 -78 32 C-68.79433033 27.28699093 -59.515662 22.93445144 -50 18.875 C-47.38751304 17.75639162 -44.77579818 16.63598612 -42.1640625 15.515625 C-41.50000397 15.23131622 -40.83594543 14.94700745 -40.15176392 14.65408325 C-35.25752919 12.55411518 -30.38776671 10.40256959 -25.5234375 8.234375 C-23.47094338 7.32495269 -21.41796045 6.41664504 -19.36474609 5.5088501 C-18.04461693 4.92244548 -16.72622831 4.33210577 -15.40966797 3.73773193 C-13.57724292 2.9111184 -11.73797405 2.09972688 -9.8984375 1.2890625 C-8.85349121 0.82193848 -7.80854492 0.35481445 -6.73193359 -0.12646484 C-3.90849766 -1.02925785 -2.71436889 -1.06998618 0 0 Z M-48 35 C-47.67 37.31 -47.34 39.62 -47 42 C-47.7425 42.20625 -48.485 42.4125 -49.25 42.625 C-52.994607 44.4973035 -54.15752389 46.24680792 -56 50 C-56.750483 53.8844444 -56.92701683 57.35805137 -54.94140625 60.875 C-52.45986948 63.938262 -50.54718457 65.79455418 -46.6171875 66.31640625 C-45.71226562 66.39761719 -44.80734375 66.47882813 -43.875 66.5625 C-42.26625 66.706875 -40.6575 66.85125 -39 67 C-37.68 70.96 -36.36 74.92 -35 79 C-36.98 78.34 -38.96 77.68 -41 77 C-41.33 76.34 -41.66 75.68 -42 75 C-45.465 75.495 -45.465 75.495 -49 76 C-49.33 76.99 -49.66 77.98 -50 79 C-46.57463731 82.82834653 -44.04326209 84.86783912 -39 86 C-35.74955291 86.16798469 -35.74955291 86.16798469 -33 86 C-32.34 87.32 -31.68 88.64 -31 90 C-29.02 89.34 -27.04 88.68 -25 88 C-24.979375 87.29875 -24.95875 86.5975 -24.9375 85.875 C-23.88578071 82.64972752 -23.17529325 82.1660675 -20.5625 80.1875 C-17.18017372 77.46769124 -15.76500237 75.30394222 -15.01953125 71.01953125 C-14.9740051 66.3121277 -17.11247557 63.0816704 -20 59.5625 C-24.66663205 57.13196248 -28.78428056 57.74864003 -34 58 C-34.99 54.04 -35.98 50.08 -37 46 C-36.154375 46.70125 -35.30875 47.4025 -34.4375 48.125 C-31.06321549 50.43900671 -31.06321549 50.43900671 -27.125 49.25 C-26.09375 48.8375 -25.0625 48.425 -24 48 C-25.2832468 44.04332237 -26.44499744 42.17250157 -30 40 C-32.57873609 39.43015552 -32.57873609 39.43015552 -35.25 39.3125 C-36.14203125 39.24675781 -37.0340625 39.18101562 -37.953125 39.11328125 C-38.62859375 39.07589844 -39.3040625 39.03851563 -40 39 C-40.33 37.35 -40.66 35.7 -41 34 C-44.89459074 33.78918149 -44.89459074 33.78918149 -48 35 Z " fill="#1072B7" transform="translate(275,160)"/>
<path d="M0 0 C6.96871581 5.32277151 11.91495096 11.50570085 13.875 20.1875 C16.29612534 42.15096494 7.29336018 62.21423789 -6.125 79.1875 C-9.99164255 83.97347507 -14.00990204 88.61431205 -18.125 93.1875 C-18.72828125 93.86425781 -19.3315625 94.54101562 -19.953125 95.23828125 C-41.73717399 118.2875654 -76.24895838 137.15413149 -108.125 139.1875 C-109.10919922 139.28417969 -109.10919922 139.28417969 -110.11328125 139.3828125 C-120.09096438 139.94652341 -132.21779961 137.0543221 -140.23046875 130.94140625 C-147.86076394 123.87748349 -151.63894087 116.79379669 -152.40234375 106.41796875 C-152.77433122 95.82779111 -151.54219292 85.47411643 -146.125 76.1875 C-145.02075777 79.5002267 -145.26190088 80.5159154 -146.0625 83.8125 C-148.00735853 93.00395471 -147.9321806 101.97266313 -142.87109375 110.234375 C-138.67642789 115.58343119 -133.4622786 118.0750738 -127.125 120.1875 C-91.92057383 122.90881453 -63.59859441 108.16575627 -37.44921875 85.91015625 C-34.96050221 83.71516383 -32.53663109 81.46683158 -30.125 79.1875 C-29.15820312 78.29675781 -28.19140625 77.40601563 -27.1953125 76.48828125 C-17.39628951 67.25573005 -8.53293345 56.0781426 -4.125 43.1875 C-3.90328125 42.54941406 -3.6815625 41.91132813 -3.453125 41.25390625 C-0.54362106 31.48347747 -1.7060599 22.28789149 -6.125 13.1875 C-12.02552061 3.98962964 -22.62464087 -0.13990939 -32.91015625 -2.43359375 C-35.31084208 -2.92318509 -37.71267933 -3.38442639 -40.125 -3.8125 C-31.56904963 -12.36845037 -8.95983738 -5.62629519 0 0 Z " fill="#1374B7" transform="translate(315.125,159.8125)"/>
<path d="M0 0 C1.0209375 0.61875 1.0209375 0.61875 2.0625 1.25 C3.5165625 2.11625 3.5165625 2.11625 5 3 C6.0725 3.639375 7.145 4.27875 8.25 4.9375 C12.35410675 7.28399812 16.65537877 9.14787122 21 11 C18.14182265 19.57453205 4.57213405 26.63070072 -3 31 C-18.18333289 37.85826786 -32.47811598 36.99993418 -48 32 C-48.66 31.67 -49.32 31.34 -50 31 C-49.505 29.515 -49.505 29.515 -49 28 C-46.18359375 26.7109375 -46.18359375 26.7109375 -42.4375 25.375 C-28.31028768 20.04603108 -16.03446817 12.00958833 -4 3 C-3.21109375 2.40960938 -2.4221875 1.81921875 -1.609375 1.2109375 C-1.07828125 0.81132812 -0.5471875 0.41171875 0 0 Z " fill="#0EAADC" transform="translate(286,267)"/>
<path d="M0 0 C3.23369994 0.13881177 6.46764296 0.27042329 9.70166016 0.40161133 C11.76808477 0.48906914 13.83449176 0.57694466 15.90087891 0.6652832 C16.8623584 0.70386948 17.82383789 0.74245575 18.81445312 0.7822113 C19.71309082 0.82217728 20.61172852 0.86214325 21.53759766 0.90332031 C22.32223389 0.93662949 23.10687012 0.96993866 23.9152832 1.0042572 C26.40282724 1.21661215 28.77577193 1.66888924 31.21337891 2.20043945 C31.21337891 2.86043945 31.21337891 3.52043945 31.21337891 4.20043945 C26.82402242 5.22973491 22.4514685 5.52875711 17.96337891 5.75512695 C17.1398291 5.79717255 16.3162793 5.83921814 15.46777344 5.88253784 C5.46896428 6.34362438 -4.53102928 6.35043911 -14.53857422 6.33081055 C-17.78276235 6.32544583 -21.0268121 6.33079514 -24.27099609 6.3371582 C-34.05730913 6.34068969 -43.82395122 6.25147029 -53.59912109 5.75512695 C-54.76386963 5.6970134 -54.76386963 5.6970134 -55.95214844 5.63772583 C-59.32876468 5.44247834 -62.54641443 5.21353557 -65.78662109 4.20043945 C-65.45662109 3.21043945 -65.12662109 2.22043945 -64.78662109 1.20043945 C-60.61015094 0.90992927 -56.43332393 0.62541087 -52.25610352 0.34594727 C-50.84128367 0.25050498 -49.42656478 0.15355168 -48.01196289 0.05493164 C-31.94130109 -1.06322587 -16.08260164 -0.69489676 0 0 Z " fill="#D8DDE0" transform="translate(283.78662109375,308.799560546875)"/>
<path d="M0 0 C2.7120568 2.7120568 3.74916136 5.949189 5.1875 9.4375 C8.75471059 17.83126888 12.93458301 25.56705362 18.9375 32.5 C21 35 21 35 21 38 C18.94077867 38.53364887 16.87743893 39.05142189 14.8125 39.5625 C13.66394531 39.85253906 12.51539063 40.14257812 11.33203125 40.44140625 C7.93585097 41.01075418 6.19351534 41.22827513 3 40 C0.90812369 38.19042818 -0.93657355 36.44366434 -2.8125 34.4375 C-3.31458984 33.91736328 -3.81667969 33.39722656 -4.33398438 32.86132812 C-5.56529127 31.5831143 -6.7839407 30.29272853 -8 29 C-7.34 27.68 -6.68 26.36 -6 25 C-5.01 25 -4.02 25 -3 25 C-5.97 20.38 -8.94 15.76 -12 11 C-11.34 10.34 -10.68 9.68 -10 9 C-9.51080078 9.93972656 -9.51080078 9.93972656 -9.01171875 10.8984375 C-8.57472656 11.71570313 -8.13773438 12.53296875 -7.6875 13.375 C-7.25824219 14.18710938 -6.82898438 14.99921875 -6.38671875 15.8359375 C-5.03221276 18.26834043 -5.03221276 18.26834043 -2 20 C-0.98470459 22.32671865 0.01488198 24.6603447 1 27 C2.53951047 28.88029239 2.53951047 28.88029239 4 30 C4.042721 28.33388095 4.04063832 26.66617115 4 25 C3.67 24.67 3.34 24.34 3 24 C2.73134328 15.80597015 2.73134328 15.80597015 4 12 C3.34 12 2.68 12 2 12 C0.86235649 7.73383684 0 4.43513689 0 0 Z " fill="#0FAADB" transform="translate(203,237)"/>
<path d="M0 0 C0.66161133 0.15686279 1.32322266 0.31372559 2.00488281 0.4753418 C6.47399222 1.65484726 9.96865817 3.33937694 13.5625 6.25 C13.5625 7.24 13.5625 8.23 13.5625 9.25 C12.5725 9.58 11.5825 9.91 10.5625 10.25 C7.875 8.8125 7.875 8.8125 5.5625 7.25 C5.5625 7.91 5.5625 8.57 5.5625 9.25 C6.2225 9.58 6.8825 9.91 7.5625 10.25 C6.2425 11.57 4.9225 12.89 3.5625 14.25 C3.13582031 13.87488281 2.70914062 13.49976563 2.26953125 13.11328125 C-6.28886514 6.10774854 -16.61377271 2.88699713 -27.4375 1.25 C-21.04202541 -5.14547459 -7.9324202 -1.93336623 0 0 Z " fill="#237DBA" transform="translate(302.4375,154.75)"/>
<path d="M0 0 C1.423125 0.495 1.423125 0.495 2.875 1 C5.77062452 2.10159191 5.77062452 2.10159191 8 2 C8 1.34 8 0.68 8 0 C11.39187279 1.41573821 13.09697541 3.04230966 15.25 6 C15.77078125 6.70125 16.2915625 7.4025 16.828125 8.125 C18 10 18 10 18 12 C16.68 11.67 15.36 11.34 14 11 C13.896875 11.639375 13.79375 12.27875 13.6875 12.9375 C13.460625 13.618125 13.23375 14.29875 13 15 C12.01 15.33 11.02 15.66 10 16 C6.98036471 20.19778807 7.99161029 24.992297 8.22265625 29.90625 C7.97795901 33.30625381 7.29630142 34.55380946 5 37 C5.04640625 36.04480469 5.0928125 35.08960938 5.140625 34.10546875 C5.41250315 24.36640491 4.00428529 17.25115262 -0.2578125 8.3828125 C-0.50273437 7.59648437 -0.74765625 6.81015625 -1 6 C-0.34 5.01 0.32 4.02 1 3 C0.67 2.01 0.34 1.02 0 0 Z " fill="#1A78B9" transform="translate(308,162)"/>
<path d="M0 0 C0.66 0.33 1.32 0.66 2 1 C1.06027344 1.49693359 1.06027344 1.49693359 0.1015625 2.00390625 C-4.32199108 4.78781458 -6.62515893 6.63260223 -8.04296875 11.8046875 C-8.59621234 15.52558261 -8.85010531 19.24296206 -9 23 C-9.66 22.67 -10.32 22.34 -11 22 C-10.90460938 22.67546875 -10.80921875 23.3509375 -10.7109375 24.046875 C-10.60007813 24.93890625 -10.48921875 25.8309375 -10.375 26.75 C-10.25898438 27.63171875 -10.14296875 28.5134375 -10.0234375 29.421875 C-9.99792183 32.22859878 -10.55156156 33.63384866 -12 36 C-14.56214239 25.37564955 -15.95330739 14.86097506 -17 4 C-15.35 3.67 -13.7 3.34 -12 3 C-12.185625 3.804375 -12.37125 4.60875 -12.5625 5.4375 C-13.10488586 9.85407058 -12.60068359 13.59498699 -12 18 C-12 14.04 -12 10.08 -12 6 C-10.04669132 4.96958487 -8.08718472 3.9509107 -6.125 2.9375 C-5.03445312 2.36902344 -3.94390625 1.80054688 -2.8203125 1.21484375 C-1.88960937 0.81394531 -0.95890625 0.41304687 0 0 Z " fill="#418BBD" transform="translate(214,188)"/>
<path d="M0 0 C2.475 0.99 2.475 0.99 5 2 C5 3.32 5 4.64 5 6 C5.66 6 6.32 6 7 6 C6.98839844 6.83144531 6.97679687 7.66289062 6.96484375 8.51953125 C6.95582031 9.60621094 6.94679687 10.69289062 6.9375 11.8125 C6.92589844 12.89144531 6.91429687 13.97039062 6.90234375 15.08203125 C6.86375234 18.06512169 6.86375234 18.06512169 8 21 C7.67 21.99 7.34 22.98 7 24 C2.10137733 21.55068866 0.34158364 16.74745899 -1.33984375 11.859375 C-1.9947418 9.88423943 -1.9947418 9.88423943 -3.1875 7.6875 C-4 6 -4 6 -4 3 C-3.01 3 -2.02 3 -1 3 C-0.67 2.01 -0.34 1.02 0 0 Z " fill="#02A7DC" transform="translate(200,243)"/>
<path d="M0 0 C0.33 1.32 0.66 2.64 1 4 C1.66 4 2.32 4 3 4 C2.9071875 5.4540625 2.9071875 5.4540625 2.8125 6.9375 C2.77959273 10.97686742 3.97508711 14.25666588 5.44140625 17.984375 C6 20 6 20 5 23 C4.360625 22.01 3.72125 21.02 3.0625 20 C2.381875 19.01 1.70125 18.02 1 17 C0.67 17 0.34 17 0 17 C-0.66 15.02 -1.32 13.04 -2 11 C-2.66 12.32 -3.32 13.64 -4 15 C-4.99 15 -5.98 15 -7 15 C-7.66 16.32 -8.32 17.64 -9 19 C-9.83764268 17.04350603 -10.66999059 15.08474444 -11.5 13.125 C-11.9640625 12.03445312 -12.428125 10.94390625 -12.90625 9.8203125 C-14 7 -14 7 -14 5 C-13.34 5 -12.68 5 -12 5 C-11.773125 5.639375 -11.54625 6.27875 -11.3125 6.9375 C-10.1609096 9.22106421 -10.1609096 9.22106421 -7.625 9.8125 C-4.74008079 10.15533953 -4.74008079 10.15533953 -1 9 C-0.67 6.03 -0.34 3.06 0 0 Z " fill="#44BEE1" transform="translate(171,194)"/>
<path d="M0 0 C0 0.66 0 1.32 0 2 C-1.98 2.66 -3.96 3.32 -6 4 C-6 4.99 -6 5.98 -6 7 C-6.99 7 -7.98 7 -9 7 C-8.90912109 7.6798999 -8.81824219 8.3597998 -8.72460938 9.06030273 C-8.31038976 12.18527107 -7.90514128 15.31134226 -7.5 18.4375 C-7.35691406 19.50677734 -7.21382812 20.57605469 -7.06640625 21.67773438 C-6.2742251 27.84543049 -5.84308402 33.7822041 -6 40 C-11.47184378 29.34496156 -11.18089731 16.6980261 -11 5 C-9.54462432 4.16151196 -8.08559627 3.32936066 -6.625 2.5 C-5.81289062 2.0359375 -5.00078125 1.571875 -4.1640625 1.09375 C-2 0 -2 0 0 0 Z " fill="#67C7E3" transform="translate(186,176)"/>
<path d="M0 0 C1.08946437 3.26839312 0.90201208 4.19640165 0.125 7.4375 C-1.1476128 13.25884371 -1.61233187 19.06255652 -2 25 C-2.33 25 -2.66 25 -3 25 C-3.33 27.97 -3.66 30.94 -4 34 C-4.66 34 -5.32 34 -6 34 C-6.40986852 22.03791149 -6.21601271 10.65602178 0 0 Z " fill="#5695BD" transform="translate(169,236)"/>
<path d="M0 0 C1.32 0.33 2.64 0.66 4 1 C3.67 2.65 3.34 4.3 3 6 C4.65 6 6.3 6 8 6 C8 5.34 8 4.68 8 4 C8.99 4 9.98 4 11 4 C11 3.34 11 2.68 11 2 C12.32 2.66 13.64 3.32 15 4 C12.21443118 5.36698387 9.42068672 6.71634538 6.625 8.0625 C5.8309375 8.45244141 5.036875 8.84238281 4.21875 9.24414062 C3.07792969 9.79038086 3.07792969 9.79038086 1.9140625 10.34765625 C0.8614624 10.85824585 0.8614624 10.85824585 -0.21240234 11.37915039 C-0.80230957 11.58403076 -1.3922168 11.78891113 -2 12 C-2.66 11.67 -3.32 11.34 -4 11 C-4.56638908 6.18569279 -2.82561627 3.79692186 0 0 Z " fill="#16ADDE" transform="translate(205,175)"/>
<path d="M0 0 C0.25523437 0.97839844 0.25523437 0.97839844 0.515625 1.9765625 C2.01038098 7.36722504 3.60206902 11.54753872 7 16 C2.25 15.25 2.25 15.25 0 13 C-0.33 15.31 -0.66 17.62 -1 20 C-0.34 20.33 0.32 20.66 1 21 C0.34 21.66 -0.32 22.32 -1 23 C-4.09494436 17.92173213 -4.32652766 14.39372625 -3.8125 8.6875 C-3.76802734 7.95982422 -3.72355469 7.23214844 -3.67773438 6.48242188 C-3.53912396 4.64626169 -3.27920697 2.82009355 -3 1 C-1 0 -1 0 0 0 Z " fill="#3F8CBE" transform="translate(168,258)"/>
<path d="M0 0 C0.680625 0.4125 1.36125 0.825 2.0625 1.25 C9.29050404 5.60394916 9.29050404 5.60394916 17 9 C17 9.33 17 9.66 17 10 C12.78121808 10.19622241 9.82989106 9.80230168 6 8 C6 7.34 6 6.68 6 6 C3.03 5.505 3.03 5.505 0 5 C-0.99 6.485 -0.99 6.485 -2 8 C-4.625 8.1875 -4.625 8.1875 -7 8 C-7.33 8.99 -7.66 9.98 -8 11 C-9.32 10.34 -10.64 9.68 -12 9 C-10.56351736 7.87370125 -9.12577415 6.7490101 -7.6875 5.625 C-6.88699219 4.99851562 -6.08648437 4.37203125 -5.26171875 3.7265625 C-3.55336788 2.42243282 -1.78827274 1.19218183 0 0 Z " fill="#41B6DC" transform="translate(286,267)"/>
<path d="M0 0 C3.76712329 4.52054795 3.76712329 4.52054795 5.0625 7.1875 C5.99309803 9.34509852 5.99309803 9.34509852 9 11 C10.03485877 13.31808364 11.0355414 15.65175298 12 18 C12.66 18.66 13.32 19.32 14 20 C12.33333333 20 10.66666667 20 9 20 C8.67 20.66 8.34 21.32 8 22 C9.32 22.33 10.64 22.66 12 23 C11.34 24.32 10.68 25.64 10 27 C7.69 24.69 5.38 22.38 3 20 C3.66 18.68 4.32 17.36 5 16 C5.99 16 6.98 16 8 16 C7.33871094 15.01257813 6.67742187 14.02515625 5.99609375 13.0078125 C5.14280826 11.71381912 4.28996649 10.41953307 3.4375 9.125 C2.99986328 8.47402344 2.56222656 7.82304687 2.11132812 7.15234375 C1.01245164 5.47374503 -0.0007818 3.73976613 -1 2 C-0.67 1.34 -0.34 0.68 0 0 Z " fill="#4EC9E9" transform="translate(192,246)"/>
<path d="M0 0 C2.80161195 2.80161195 3.97103759 6.22039793 5.5 9.8125 C5.96212891 10.88081055 5.96212891 10.88081055 6.43359375 11.97070312 C8.00956779 15.62655706 9.5439547 19.2943647 11 23 C8.23735711 23.59732819 5.83967231 24 3 24 C2.85714286 15.42857143 2.85714286 15.42857143 4 12 C3.34 12 2.68 12 2 12 C0.86235649 7.73383684 0 4.43513689 0 0 Z " fill="#37B8DD" transform="translate(203,237)"/>
<path d="M0 0 C1.32 0 2.64 0 4 0 C4 0.66 4 1.32 4 2 C3.36908447 2.29245605 2.73816895 2.58491211 2.08813477 2.88623047 C-0.75679649 4.20936887 -3.59715795 5.54204051 -6.4375 6.875 C-7.43072266 7.33519531 -8.42394531 7.79539063 -9.44726562 8.26953125 C-10.39150391 8.71425781 -11.33574219 9.15898437 -12.30859375 9.6171875 C-13.62041626 10.22989502 -13.62041626 10.22989502 -14.95874023 10.85498047 C-17.15058527 11.83342667 -17.15058527 11.83342667 -18 14 C-18.07092842 16.2072923 -18.08415025 18.41667452 -18.0625 20.625 C-18.05347656 21.81351563 -18.04445312 23.00203125 -18.03515625 24.2265625 C-18.02355469 25.14179688 -18.01195312 26.05703125 -18 27 C-18.33 27 -18.66 27 -19 27 C-19.22237877 24.58388467 -19.42832339 22.1682283 -19.625 19.75 C-19.68945312 19.06808594 -19.75390625 18.38617188 -19.8203125 17.68359375 C-20.11594735 13.8772951 -20.17561392 11.22190154 -18 8 C-16.35 8 -14.7 8 -13 8 C-13 7.34 -13 6.68 -13 6 C-11.35 6 -9.7 6 -8 6 C-8 5.34 -8 4.68 -8 4 C-7.01 4 -6.02 4 -5 4 C-5 3.34 -5 2.68 -5 2 C-3.35 2 -1.7 2 0 2 C0 1.34 0 0.68 0 0 Z " fill="#69CBE5" transform="translate(189,167)"/>
<path d="M0 0 C0.33 0.66 0.66 1.32 1 2 C-0.62249941 2.83819158 -2.24808497 3.6704116 -3.875 4.5 C-4.77992188 4.9640625 -5.68484375 5.428125 -6.6171875 5.90625 C-9 7 -9 7 -11 7 C-10.67 7.99 -10.34 8.98 -10 10 C-9.88367271 11.51766539 -9.82503761 13.0404346 -9.8125 14.5625 C-9.79832031 15.34753906 -9.78414062 16.13257813 -9.76953125 16.94140625 C-10 19 -10 19 -12 21 C-12.16789126 18.56257869 -12.33436133 16.12507454 -12.5 13.6875 C-12.54769531 12.99720703 -12.59539062 12.30691406 -12.64453125 11.59570312 C-12.83879489 8.72337641 -13 5.87986212 -13 3 C-8.37802694 0.78145293 -5.23175837 -0.38281159 0 0 Z " fill="#1F7EB7" transform="translate(213,187)"/>
<path d="M0 0 C0.66 0.33 1.32 0.66 2 1 C2 1.66 2 2.32 2 3 C2.75667969 3.07089844 3.51335937 3.14179688 4.29296875 3.21484375 C7.77328458 4.224286 8.46298394 5.5086479 10.3125 8.5625 C10.82425781 9.38878906 11.33601562 10.21507812 11.86328125 11.06640625 C12.23839844 11.70449219 12.61351562 12.34257812 13 13 C12.38125 13.144375 11.7625 13.28875 11.125 13.4375 C8.96741678 13.93152225 8.96741678 13.93152225 7 15 C6.566875 14.05125 6.13375 13.1025 5.6875 12.125 C4.20697799 8.79958063 4.20697799 8.79958063 1 7 C-0.1875 3.875 -0.1875 3.875 -1 1 C-0.67 0.67 -0.34 0.34 0 0 Z " fill="#03A7DA" transform="translate(188,249)"/>
<path d="M0 0 C1.0209375 0.433125 1.0209375 0.433125 2.0625 0.875 C5.32893093 2.12597355 8.62846123 3.07447955 12 4 C11.21625 4.61875 10.4325 5.2375 9.625 5.875 C7.03162353 7.89858661 7.03162353 7.89858661 5 10 C7.97 10.33 10.94 10.66 14 11 C14 11.33 14 11.66 14 12 C10.37 12 6.74 12 3 12 C0 4.5 0 4.5 0 0 Z " fill="#398BC2" transform="translate(238,206)"/>
<path d="M0 0 C3.26954202 0.56371414 4.82575883 1.49962266 7 4 C2.91910537 7.52942238 1.31602261 8 -4 8 C-4 7.34 -4 6.68 -4 6 C-5.98 6.99 -5.98 6.99 -8 8 C-7.67 6.68 -7.34 5.36 -7 4 C-5.35 4 -3.7 4 -2 4 C-1.34 2.68 -0.68 1.36 0 0 Z " fill="#02A6DD" transform="translate(286,271)"/>
<path d="M0 0 C-0.66 5.28 -1.32 10.56 -2 16 C-4 14 -4 14 -4.1953125 11.3984375 C-4.17210937 10.40070313 -4.14890625 9.40296875 -4.125 8.375 C-4.10695313 7.37210938 -4.08890625 6.36921875 -4.0703125 5.3359375 C-4.04710937 4.56507813 -4.02390625 3.79421875 -4 3 C-5.0725 3.350625 -6.145 3.70125 -7.25 4.0625 C-10.78720743 4.94680186 -11.74811124 5.02880551 -15 4 C-13.25705322 3.13153169 -11.50531337 2.28069373 -9.75 1.4375 C-8.77546875 0.96183594 -7.8009375 0.48617187 -6.796875 -0.00390625 C-4 -1 -4 -1 0 0 Z " fill="#3C86B8" transform="translate(275,160)"/>
<path d="M0 0 C0.66 0.33 1.32 0.66 2 1 C1.06027344 1.49693359 1.06027344 1.49693359 0.1015625 2.00390625 C-4.32199108 4.78781458 -6.62515893 6.63260223 -8.04296875 11.8046875 C-8.59621234 15.52558261 -8.85010531 19.24296206 -9 23 C-11.15059309 19.46813168 -11.3797728 16.33712007 -11.625 12.25 C-11.69976562 11.07953125 -11.77453125 9.9090625 -11.8515625 8.703125 C-11.90054688 7.81109375 -11.94953125 6.9190625 -12 6 C-10.04669132 4.96958487 -8.08718472 3.9509107 -6.125 2.9375 C-5.03445312 2.36902344 -3.94390625 1.80054688 -2.8203125 1.21484375 C-1.42425781 0.61349609 -1.42425781 0.61349609 0 0 Z " fill="#3DAEE3" transform="translate(214,188)"/>
<path d="M0 0 C0.33 0 0.66 0 1 0 C1 1.98 1 3.96 1 6 C-2.78549368 7.866971 -6.5793041 9.71637066 -10.375 11.5625 C-11.99535156 12.36204102 -11.99535156 12.36204102 -13.6484375 13.17773438 C-14.6796875 13.67724609 -15.7109375 14.17675781 -16.7734375 14.69140625 C-17.72653809 15.15748291 -18.67963867 15.62355957 -19.66162109 16.10375977 C-20.43328613 16.39951904 -21.20495117 16.69527832 -22 17 C-22.66 16.67 -23.32 16.34 -24 16 C-23.67 15.34 -23.34 14.68 -23 14 C-22.01 14 -21.02 14 -20 14 C-20 13.34 -20 12.68 -20 12 C-19.360625 11.87625 -18.72125 11.7525 -18.0625 11.625 C-17.381875 11.41875 -16.70125 11.2125 -16 11 C-15.67 10.34 -15.34 9.68 -15 9 C-12.71484375 8.1484375 -12.71484375 8.1484375 -9.9375 7.375 C-9.01839844 7.11460937 -8.09929687 6.85421875 -7.15234375 6.5859375 C-6.44207031 6.39257812 -5.73179687 6.19921875 -5 6 C-5 5.34 -5 4.68 -5 4 C-2.525 4.495 -2.525 4.495 0 5 C0 3.35 0 1.7 0 0 Z " fill="#4EBEDE" transform="translate(230,145)"/>
<path d="M0 0 C2.4375 0.6875 2.4375 0.6875 5 2 C5.8125 4.625 5.8125 4.625 6 7 C11.57710648 8.06795656 16.39436958 7.82622671 22 7 C18.4053757 10.01948441 13.87249702 13.16398113 9.015625 12.88671875 C6.09998774 11.60406437 5.00955825 9.68303868 3.25 7.0625 C2.63640625 6.16660156 2.0228125 5.27070313 1.390625 4.34765625 C0 2 0 2 0 0 Z " fill="#3F8EC1" transform="translate(218,260)"/>
<path d="M0 0 C2.875 0.3125 2.875 0.3125 6 1 C8 4 8 4 7.625 7.1875 C7.41875 8.115625 7.2125 9.04375 7 10 C5.68 10.33 4.36 10.66 3 11 C0 4.5 0 4.5 0 0 Z " fill="#5799C3" transform="translate(244,225)"/>
<path d="M0 0 C0.99 0.66 1.98 1.32 3 2 C3.1875 4.625 3.1875 4.625 3 7 C3.66 7 4.32 7 5 7 C4.67 9.97 4.34 12.94 4 16 C1.20294175 14.60147088 1.09085007 12.86348142 0 10 C-0.66 9.01 -1.32 8.02 -2 7 C-2.8125 5 -2.8125 5 -3 3 C-1.5625 1.25 -1.5625 1.25 0 0 Z " fill="#03A7DD" transform="translate(178,228)"/>
<path d="M0 0 C0 0.33 0 0.66 0 1 C-6.6 1 -13.2 1 -20 1 C-20 1.33 -20 1.66 -20 2 C-23.375 2.125 -23.375 2.125 -27 2 C-27.66 1.34 -28.32 0.68 -29 0 C-19.52039988 -3.57613657 -9.66055159 -2.44239679 0 0 Z " fill="#8DBED9" transform="translate(304,155)"/>
<path d="M0 0 C1.29243536 4.1196377 2.26252625 7.66831683 2 12 C0.0549 9.08235 -0.45276317 7.37462715 -1 4 C-4.29075996 4.37904208 -4.29075996 4.37904208 -7 6 C-8.51928038 6.07179964 -10.04167482 6.08392007 -11.5625 6.0625 C-12.38878906 6.05347656 -13.21507812 6.04445312 -14.06640625 6.03515625 C-14.70449219 6.02355469 -15.34257812 6.01195312 -16 6 C-13.52031046 4.34687364 -11.25727576 3.10196367 -8.5625 1.875 C-7.80066406 1.52179688 -7.03882813 1.16859375 -6.25390625 0.8046875 C-4 0 -4 0 0 0 Z " fill="#62C5E2" transform="translate(228,133)"/>
<path d="M0 0 C2 1 2 1 3.125 3.8125 C4 7 4 7 4 11 C-0.75 10.25 -0.75 10.25 -3 8 C-3.3125 5.5625 -3.3125 5.5625 -3 3 C-1.5 1.1875 -1.5 1.1875 0 0 Z " fill="#3B85B4" transform="translate(229,208)"/>
<path d="M0 0 C0.3403125 0.9590625 0.3403125 0.9590625 0.6875 1.9375 C1.85250896 4.27193661 1.85250896 4.27193661 4.625 4.75 C5.40875 4.8325 6.1925 4.915 7 5 C7 5.66 7 6.32 7 7 C6.34 7 5.68 7 5 7 C4.67 8.32 4.34 9.64 4 11 C2.68 11.33 1.36 11.66 0 12 C-1.1671568 8.49852959 -1.13357453 5.67329964 -1 2 C-0.67 1.34 -0.34 0.68 0 0 Z " fill="#076CB2" transform="translate(168,269)"/>
<path d="M0 0 C-6.79770453 4.53180302 -15.96285696 5.47277312 -24 5 C-20.72322986 0.80343474 -16.29716461 1.01344454 -11.3203125 0.33984375 C-7.49472525 -0.05171636 -3.83939036 -0.15056433 0 0 Z " fill="#569BC5" transform="translate(232,293)"/>
<path d="M0 0 C0.66 0.33 1.32 0.66 2 1 C1.525625 1.598125 1.05125 2.19625 0.5625 2.8125 C-1.16465744 5.00382924 -1.16465744 5.00382924 -2 8 C-4.30368736 9.06652192 -6.64018187 10.06421005 -9 11 C-9.99 11.66 -10.98 12.32 -12 13 C-14.1875 12.625 -14.1875 12.625 -16 12 C-15.01257813 11.30132812 -14.02515625 10.60265625 -13.0078125 9.8828125 C-11.7134704 8.96364202 -10.41920347 8.04436567 -9.125 7.125 C-8.47402344 6.66480469 -7.82304687 6.20460938 -7.15234375 5.73046875 C-6.52714844 5.28574219 -5.90195312 4.84101563 -5.2578125 4.3828125 C-4.6817627 3.97434082 -4.10571289 3.56586914 -3.51220703 3.14501953 C-1.84771607 1.93897192 -1.84771607 1.93897192 0 0 Z " fill="#4B92C0" transform="translate(271,251)"/>
<path d="M0 0 C0.3396019 1.87387477 0.67138691 3.74916697 1 5.625 C1.185625 6.66914063 1.37125 7.71328125 1.5625 8.7890625 C1.98715797 11.90574865 2.07545206 14.85930812 2 18 C0.35 18.66 -1.3 19.32 -3 20 C-3.33 19.34 -3.66 18.68 -4 18 C-3.01 18 -2.02 18 -1 18 C-0.94613371 15.87527424 -0.90726929 13.75016348 -0.875 11.625 C-0.85179687 10.44164062 -0.82859375 9.25828125 -0.8046875 8.0390625 C-0.67133771 4.88846183 -0.67133771 4.88846183 -3 3 C-3.99 3.495 -3.99 3.495 -5 4 C-5.66 3.34 -6.32 2.68 -7 2 C-4.35261084 0.5393715 -3.10551666 0 0 0 Z " fill="#6BCEE5" transform="translate(251,145)"/>
<path d="M0 0 C18.34042553 -0.38297872 18.34042553 -0.38297872 27 2 C24.24455642 2.91848119 22.75526942 3.08426974 19.9375 3 C16.21428985 2.70651608 16.21428985 2.70651608 14 4 C11.61199395 3.59054573 9.23760538 3.09945577 6.875 2.5625 C4.95300781 2.13130859 4.95300781 2.13130859 2.9921875 1.69140625 C1.51105469 1.34916016 1.51105469 1.34916016 0 1 C0 0.67 0 0.34 0 0 Z " fill="#106BA5" transform="translate(280,155)"/>
<path d="M0 0 C1.65 0 3.3 0 5 0 C5 0.66 5 1.32 5 2 C3.80375 2.474375 2.6075 2.94875 1.375 3.4375 C0.70210938 3.70433594 0.02921875 3.97117187 -0.6640625 4.24609375 C-5.72037543 5.8779807 -10.59096069 6.11641877 -15.875 6.0625 C-17.02742188 6.05347656 -18.17984375 6.04445313 -19.3671875 6.03515625 C-20.23601562 6.02355469 -21.10484375 6.01195312 -22 6 C-22 5.67 -22 5.34 -22 5 C-16.72 4.34 -11.44 3.68 -6 3 C-6 2.67 -6 2.34 -6 2 C-4.02 2 -2.04 2 0 2 C0 1.34 0 0.68 0 0 Z " fill="#7AD2E8" transform="translate(275,297)"/>
<path d="M0 0 C-2.39509338 2.89932357 -4.31245243 3.50168276 -8 4 C-8 4.66 -8 5.32 -8 6 C-9.56159059 6.48212214 -11.12431928 6.96055873 -12.6875 7.4375 C-13.55761719 7.70433594 -14.42773438 7.97117188 -15.32421875 8.24609375 C-17.87025921 8.96344529 -20.4003423 9.517541 -23 10 C-19.19757006 6.78725171 -14.84513078 4.85006144 -10.375 2.75 C-9.59898437 2.37359375 -8.82296875 1.9971875 -8.0234375 1.609375 C-7.2809375 1.25875 -6.5384375 0.908125 -5.7734375 0.546875 C-5.09716309 0.22557617 -4.42088867 -0.09572266 -3.72412109 -0.42675781 C-2 -1 -2 -1 0 0 Z " fill="#70CFE7" transform="translate(221,160)"/>
<path d="M0 0 C0.66 0 1.32 0 2 0 C2.86366822 1.78710586 3.71568594 3.5798465 4.5625 5.375 C5.27599609 6.87160156 5.27599609 6.87160156 6.00390625 8.3984375 C6.33261719 9.25695312 6.66132813 10.11546875 7 11 C6.67 11.66 6.34 12.32 6 13 C5.01 12.67 4.02 12.34 3 12 C1.8125 8.9375 1.8125 8.9375 1 6 C0.01 6.495 0.01 6.495 -1 7 C-1 6.34 -1 5.68 -1 5 C-1.99 5.33 -2.98 5.66 -4 6 C-2.84826645 3.53199953 -1.95216435 1.95216435 0 0 Z " fill="#2DB3D9" transform="translate(178,223)"/>
<path d="M0 0 C0.38929688 0.42152344 0.77859375 0.84304687 1.1796875 1.27734375 C6.12157017 6.11674498 10.1770992 6.97254366 17 7 C17 7.33 17 7.66 17 8 C16.00097656 8.06058594 15.00195312 8.12117187 13.97265625 8.18359375 C12.03712891 8.30927734 12.03712891 8.30927734 10.0625 8.4375 C8.77472656 8.51871094 7.48695313 8.59992188 6.16015625 8.68359375 C3.13976043 8.64919188 3.13976043 8.64919188 2 10 C1.01 9.01 0.02 8.02 -1 7 C-0.67 6.01 -0.34 5.02 0 4 C0 2.68 0 1.36 0 0 Z " fill="#4F9CCA" transform="translate(219,219)"/>
<path d="M0 0 C-0.33 1.65 -0.66 3.3 -1 5 C-3.31 5.66 -5.62 6.32 -8 7 C-8.66 6.34 -9.32 5.68 -10 5 C-12.06874034 4.3574765 -12.06874034 4.3574765 -14 4 C-12.42032193 3.32471777 -10.83608097 2.66010306 -9.25 2 C-8.36828125 1.62875 -7.4865625 1.2575 -6.578125 0.875 C-4 0 -4 0 0 0 Z " fill="#24ACD7" transform="translate(256,289)"/>
<path d="M0 0 C1.875 0.1875 1.875 0.1875 4 1 C5.125 3.5 5.125 3.5 6 6 C6.66 6.33 7.32 6.66 8 7 C8.33 7.99 8.66 8.98 9 10 C10.62652316 11.70586575 12.29006566 13.3777546 14 15 C13.67 15.99 13.34 16.98 13 18 C3.40546697 6.66287016 3.40546697 6.66287016 0 0 Z " fill="#66C7E4" transform="translate(181,246)"/>
<path d="M0 0 C0 0.66 0 1.32 0 2 C-0.63808594 2.10957031 -1.27617187 2.21914062 -1.93359375 2.33203125 C-2.75988281 2.49058594 -3.58617187 2.64914063 -4.4375 2.8125 C-5.26121094 2.96332031 -6.08492187 3.11414063 -6.93359375 3.26953125 C-7.95646484 3.63111328 -7.95646484 3.63111328 -9 4 C-9.33 4.99 -9.66 5.98 -10 7 C-11.70703125 7.765625 -11.70703125 7.765625 -13.8125 8.25 C-14.49957031 8.42015625 -15.18664062 8.5903125 -15.89453125 8.765625 C-18.20416039 9.02272657 -19.77886988 8.61180482 -22 8 C-18.89954577 6.65791246 -15.79407011 5.32786246 -12.6875 4 C-11.80642578 3.6184375 -10.92535156 3.236875 -10.01757812 2.84375 C-9.17001953 2.4828125 -8.32246094 2.121875 -7.44921875 1.75 C-6.66893311 1.41484375 -5.88864746 1.0796875 -5.0847168 0.734375 C-3 0 -3 0 0 0 Z " fill="#61C7E2" transform="translate(176,154)"/>
<path d="M0 0 C0.33 0.66 0.66 1.32 1 2 C1.66 2 2.32 2 3 2 C5.44697666 6.36200187 6.50269348 10.02693484 7 15 C4 15 4 15 2.25 13.75 C1.63125 12.88375 1.63125 12.88375 1 12 C1.31229724 10.66158328 1.64830932 9.32860925 2 8 C1.38325228 6.31422289 0.71727778 4.64551962 0 3 C0 2.01 0 1.02 0 0 Z " fill="#72CFE7" transform="translate(185,230)"/>
<path d="M0 0 C2 1.3125 2 1.3125 4 3 C4 3.99 4 4.98 4 6 C1.94077867 6.53364887 -0.12256107 7.05142189 -2.1875 7.5625 C-3.33605469 7.85253906 -4.48460937 8.14257812 -5.66796875 8.44140625 C-8.88480093 8.98068761 -10.89672783 8.88247476 -14 8 C-14 7.67 -14 7.34 -14 7 C-13.12988281 6.92652344 -13.12988281 6.92652344 -12.2421875 6.8515625 C-7.56076908 6.40350595 -3.42514541 5.701979 1 4 C0.67 2.68 0.34 1.36 0 0 Z " fill="#79D0E4" transform="translate(220,269)"/>
<path d="M0 0 C0.33 0 0.66 0 1 0 C1.44414588 2.2447373 1.85443415 4.4961946 2.25 6.75 C2.48203125 8.00296875 2.7140625 9.2559375 2.953125 10.546875 C3 14 3 14 1.171875 16.453125 C-1 18 -1 18 -3 18 C-3 17.01 -3 16.02 -3 15 C-2.01 15 -1.02 15 0 15 C-0.08378906 14.33613281 -0.16757812 13.67226562 -0.25390625 12.98828125 C-1.26537786 4.21792619 -1.26537786 4.21792619 0 0 Z " fill="#5195BD" transform="translate(271,231)"/>
<path d="M0 0 C0.66 0.33 1.32 0.66 2 1 C1.01 1.66 0.02 2.32 -1 3 C-1.0562279 5.96528179 -0.95683804 8.68850026 -0.6875 11.625 C-0.62626953 12.42679688 -0.56503906 13.22859375 -0.50195312 14.0546875 C-0.34851492 16.03758124 -0.17604307 18.01898519 0 20 C-2.96656949 14.50312124 -4.4036063 8.25589769 -4 2 C-2.125 0.9375 -2.125 0.9375 0 0 Z " fill="#68C9E3" transform="translate(152,163)"/>
<path d="M0 0 C0.66 0 1.32 0 2 0 C1.67 6.93 1.34 13.86 1 21 C0.67 21 0.34 21 0 21 C-0.19511725 18.25034772 -0.38136433 15.50057868 -0.5625 12.75 C-0.61857422 11.97269531 -0.67464844 11.19539062 -0.73242188 10.39453125 C-0.80493164 9.26337891 -0.80493164 9.26337891 -0.87890625 8.109375 C-0.9260376 7.41811523 -0.97316895 6.72685547 -1.02172852 6.01464844 C-0.99853136 3.86382928 -0.5995764 2.05915129 0 0 Z " fill="#76AFD1" transform="translate(270,176)"/>
<path d="M0 0 C0.99 0.33 1.98 0.66 3 1 C2.04737966 2.48285242 1.08771595 3.96118201 0.125 5.4375 C-0.40867187 6.26121094 -0.94234375 7.08492187 -1.4921875 7.93359375 C-3 10 -3 10 -5 11 C-5 9.68 -5 8.36 -5 7 C-4.34 7 -3.68 7 -3 7 C-2.87625 6.21625 -2.7525 5.4325 -2.625 4.625 C-2 2 -2 2 0 0 Z " fill="#448EBC" transform="translate(309,233)"/>
<path d="M0 0 C0 0.99 0 1.98 0 3 C-2.31 3.33 -4.62 3.66 -7 4 C-6.67 6.31 -6.34 8.62 -6 11 C-6.99 11.33 -7.98 11.66 -9 12 C-8.67 8.7 -8.34 5.4 -8 2 C-2.25 0 -2.25 0 0 0 Z " fill="#5A9FC6" transform="translate(234,191)"/>
<path d="M0 0 C1.65 0.33 3.3 0.66 5 1 C1.2440786 4.42931954 -3.23466745 5.56429083 -8 7 C-8 6.01 -8 5.02 -8 4 C-5.36 3.01 -2.72 2.02 0 1 C0 0.67 0 0.34 0 0 Z " fill="#50BFE0" transform="translate(228,171)"/>
<path d="M0 0 C0.66 0.33 1.32 0.66 2 1 C2 2.32 2 3.64 2 5 C3.98 5 5.96 5 8 5 C8 5.66 8 6.32 8 7 C3.6822542 6.49202991 -0.03302114 5.80317221 -4 4 C-3.67 3.01 -3.34 2.02 -3 1 C-2.01 0.67 -1.02 0.34 0 0 Z " fill="#7ECCE5" transform="translate(240,294)"/>
<path d="M0 0 C3.3 0.33 6.6 0.66 10 1 C10.33 2.32 10.66 3.64 11 5 C11.99 5.33 12.98 5.66 14 6 C11.03 6.66 8.06 7.32 5 8 C5 7.34 5 6.68 5 6 C5.66 6 6.32 6 7 6 C7 5.34 7 4.68 7 4 C7.66 4 8.32 4 9 4 C9 3.34 9 2.68 9 2 C7.329375 2.061875 7.329375 2.061875 5.625 2.125 C2 2 2 2 0 0 Z " fill="#106BA7" transform="translate(232,246)"/>
<path d="M0 0 C3.64551336 1.21517112 4.36745825 2.78807173 6.1484375 6.078125 C7.29730864 8.67099014 7.72582057 11.18966081 8 14 C0 4.57142857 0 4.57142857 0 0 Z " fill="#55C2E0" transform="translate(173,232)"/>
<path d="M0 0 C0.33 0 0.66 0 1 0 C1.72586999 2.57953797 2.43095794 5.16189478 3.125 7.75 C3.33253906 8.47960937 3.54007813 9.20921875 3.75390625 9.9609375 C5.19758648 15.43696596 5.19758648 15.43696596 4.1171875 18.515625 C3.74851563 19.00546875 3.37984375 19.4953125 3 20 C2.49219106 17.79344925 1.99408635 15.58466395 1.5 13.375 C1.08234375 11.53035156 1.08234375 11.53035156 0.65625 9.6484375 C0.05908379 6.32847772 -0.12409534 3.36091549 0 0 Z " fill="#80B5D6" transform="translate(199,204)"/>
<path d="M0 0 C0.33 0 0.66 0 1 0 C1.33719047 2.56204544 1.66987153 5.12454318 2 7.6875 C2.09539062 8.40873047 2.19078125 9.12996094 2.2890625 9.87304688 C2.76683735 13.60992871 3.11919794 17.22291531 3 21 C0.36253137 18.42483378 -0.21887499 16.45668604 -0.29296875 12.890625 C-0.27313353 11.34347769 -0.2375101 9.79646604 -0.1875 8.25 C-0.17396484 7.45722656 -0.16042969 6.66445312 -0.14648438 5.84765625 C-0.11125223 3.89814436 -0.05744821 1.94898374 0 0 Z " fill="#84DAEC" transform="translate(194,190)"/>
<path d="M0 0 C0.66 0.33 1.32 0.66 2 1 C1.67 2.32 1.34 3.64 1 5 C-2.57644848 6.2380014 -5.33694766 5.74926071 -9 5 C-6.06626269 3.04417512 -3.21783702 1.43775696 0 0 Z " fill="#45BBE4" transform="translate(242,148)"/>
<path d="M0 0 C-1.49879966 2.99759932 -3.80308864 3.30788674 -6.85546875 4.40234375 C-9.6234943 5.17376071 -12.1459642 5.21405269 -15 5 C-12.30932731 3.20621821 -9.91421743 2.02686042 -6.9375 0.8125 C-5.62072266 0.26529297 -5.62072266 0.26529297 -4.27734375 -0.29296875 C-2 -1 -2 -1 0 0 Z " fill="#5EC5E1" transform="translate(200,145)"/>
<path d="M0 0 C0.66 0 1.32 0 2 0 C2.53190541 1.43344 3.05015258 2.87195367 3.5625 4.3125 C3.85253906 5.11300781 4.14257812 5.91351563 4.44140625 6.73828125 C5 9 5 9 4 12 C0.125 6.375 0.125 6.375 -1 3 C-0.67 2.01 -0.34 1.02 0 0 Z " fill="#63C7E1" transform="translate(172,205)"/>
<path d="M0 0 C0.66 1.32 1.32 2.64 2 4 C1.34 4 0.68 4 0 4 C0 4.66 0 5.32 0 6 C-0.66 6 -1.32 6 -2 6 C-2 6.66 -2 7.32 -2 8 C-3.65 7.67 -5.3 7.34 -7 7 C-2.25 1.125 -2.25 1.125 0 0 Z " fill="#056CB1" transform="translate(245,281)"/>
<path d="M0 0 C1.65 0.99 3.3 1.98 5 3 C4.34 3.66 3.68 4.32 3 5 C3 4.34 3 3.68 3 3 C-0.51855159 4.40742064 -1.38612834 5.66466523 -3 9 C-3.99 9.33 -4.98 9.66 -6 10 C-6.33 9.01 -6.66 8.02 -7 7 C-5.68 6.67 -4.36 6.34 -3 6 C-2.67 4.68 -2.34 3.36 -2 2 C-1.34 2 -0.68 2 0 2 C0 1.34 0 0.68 0 0 Z " fill="#3086BF" transform="translate(175,274)"/>
<path d="M0 0 C0.33 2.64 0.66 5.28 1 8 C0.01 8.33 -0.98 8.66 -2 9 C-2.33 9.99 -2.66 10.98 -3 12 C-3 8.37 -3 4.74 -3 1 C-1 0 -1 0 0 0 Z " fill="#3387BF" transform="translate(168,258)"/>
<path d="M0 0 C2.12508244 3.18762365 2.5020163 5.26512223 3 9 C0.03 8.505 0.03 8.505 -3 8 C-3.33 7.01 -3.66 6.02 -4 5 C-2.68 5 -1.36 5 0 5 C0 3.35 0 1.7 0 0 Z " fill="#5DA0C7" transform="translate(237,230)"/>
<path d="M0 0 C0.66 0.99 1.32 1.98 2 3 C1.01 3.495 1.01 3.495 0 4 C0.66 4.66 1.32 5.32 2 6 C0.02 6 -1.96 6 -4 6 C-4 5.34 -4 4.68 -4 4 C-4.66 3.67 -5.32 3.34 -6 3 C-3.8614515 0.8614515 -2.86724686 0.57344937 0 0 Z " fill="#0CA5D2" transform="translate(246,293)"/>
<path d="M0 0 C0 0.66 0 1.32 0 2 C-0.99 2 -1.98 2 -3 2 C-3.33 3.32 -3.66 4.64 -4 6 C-8.455 6.495 -8.455 6.495 -13 7 C-4.25 0 -4.25 0 0 0 Z " fill="#5198C4" transform="translate(255,264)"/>
<path d="M0 0 C0.598125 0.185625 1.19625 0.37125 1.8125 0.5625 C4.16408762 1.22093687 4.16408762 1.22093687 7 0 C7.66 0.66 8.32 1.32 9 2 C6.03 4.475 6.03 4.475 3 7 C2.87625 6.360625 2.7525 5.72125 2.625 5.0625 C2.315625 4.0415625 2.315625 4.0415625 2 3 C1.34 2.67 0.68 2.34 0 2 C0 1.34 0 0.68 0 0 Z " fill="#3E8EC1" transform="translate(289,250)"/>
<path d="M0 0 C1.12758089 3.38274266 0.81750262 4.76778223 0.0625 8.1875 C-0.13214844 9.08855469 -0.32679688 9.98960937 -0.52734375 10.91796875 C-0.68332031 11.60503906 -0.83929688 12.29210937 -1 13 C-1.99 12.67 -2.98 12.34 -4 12 C-3.45660208 7.43545749 -2.20536179 4.0271824 0 0 Z " fill="#BFDDE6" transform="translate(169,236)"/>
<path d="M0 0 C0 0.99 0 1.98 0 3 C-0.99 3 -1.98 3 -3 3 C-3 3.66 -3 4.32 -3 5 C-7.455 5.495 -7.455 5.495 -12 6 C-8.59780735 3.25207517 -4.51535412 0 0 0 Z " fill="#66C9E3" transform="translate(198,170)"/>
<path d="M0 0 C0.33 0.66 0.66 1.32 1 2 C1.99 1.67 2.98 1.34 4 1 C4 2.32 4 3.64 4 5 C-1.53846154 5.36923077 -1.53846154 5.36923077 -3.875 3.5 C-4.24625 3.005 -4.6175 2.51 -5 2 C-3.35 1.34 -1.7 0.68 0 0 Z " fill="#01A8DD" transform="translate(250,294)"/>
<path d="M0 0 C1.60540659 0.78914921 3.20928016 1.58141765 4.8125 2.375 C5.70582031 2.81585938 6.59914063 3.25671875 7.51953125 3.7109375 C10 5 10 5 13 7 C8.78121808 7.19622241 5.82989106 6.80230168 2 5 C2 4.34 2 3.68 2 3 C1.34 3 0.68 3 0 3 C0 2.01 0 1.02 0 0 Z " fill="#5BC2DF" transform="translate(290,270)"/>
<path d="M0 0 C2.97 0.33 5.94 0.66 9 1 C9 2.65 9 4.3 9 6 C8.01 6.33 7.02 6.66 6 7 C5.38125 6.21625 4.7625 5.4325 4.125 4.625 C2.10141339 2.03162353 2.10141339 2.03162353 0 0 Z " fill="#5499C3" transform="translate(252,218)"/>
<path d="M0 0 C0.99 0 1.98 0 3 0 C2 3 2 3 0.15234375 4.16796875 C-0.57855469 4.50441406 -1.30945313 4.84085937 -2.0625 5.1875 C-2.79597656 5.53167969 -3.52945312 5.87585938 -4.28515625 6.23046875 C-5.13400391 6.61138672 -5.13400391 6.61138672 -6 7 C-6 6.01 -6 5.02 -6 4 C-5.34 4 -4.68 4 -4 4 C-4 3.34 -4 2.68 -4 2 C-2.68 2 -1.36 2 0 2 C0 1.34 0 0.68 0 0 Z " fill="#4D91C1" transform="translate(264,275)"/>
<path d="M0 0 C4.92307692 4.30769231 4.92307692 4.30769231 5.3125 7.8125 C5.209375 8.534375 5.10625 9.25625 5 10 C4.01 9.67 3.02 9.34 2 9 C2 7.68 2 6.36 2 5 C1.01 4.67 0.02 4.34 -1 4 C-0.67 2.68 -0.34 1.36 0 0 Z " fill="#07A5D6" transform="translate(201,264)"/>
<path d="M0 0 C1.32 0 2.64 0 4 0 C2.61122646 3.35620271 1.08322035 5.07298728 -2 7 C-2.66 7 -3.32 7 -4 7 C-4 6.01 -4 5.02 -4 4 C-3.34 4 -2.68 4 -2 4 C-2 3.34 -2 2.68 -2 2 C-1.34 1.34 -0.68 0.68 0 0 Z " fill="#3C8EB8" transform="translate(277,265)"/>
<path d="M0 0 C1.32 0.66 2.64 1.32 4 2 C-1.445 4.475 -1.445 4.475 -7 7 C-7.33 6.01 -7.66 5.02 -8 4 C-6.35 4 -4.7 4 -3 4 C-3 3.34 -3 2.68 -3 2 C-2.01 2 -1.02 2 0 2 C0 1.34 0 0.68 0 0 Z " fill="#61C6E1" transform="translate(216,177)"/>
<path d="M0 0 C1.32 0 2.64 0 4 0 C4 0.66 4 1.32 4 2 C2.71349294 2.69710731 1.42059335 3.38242876 0.125 4.0625 C-0.95394531 4.63677734 -0.95394531 4.63677734 -2.0546875 5.22265625 C-2.69664062 5.47917969 -3.33859375 5.73570312 -4 6 C-4.66 5.67 -5.32 5.34 -6 5 C-5.67 4.01 -5.34 3.02 -5 2 C-3.35 2 -1.7 2 0 2 C0 1.34 0 0.68 0 0 Z " fill="#5BC3DF" transform="translate(189,167)"/>
<path d="M0 0 C0.99 0 1.98 0 3 0 C2 3 2 3 -0.9375 4.6875 C-4 6 -4 6 -6 6 C-5.67 4.68 -5.34 3.36 -5 2 C-3.35 2 -1.7 2 0 2 C0 1.34 0 0.68 0 0 Z " fill="#478EBC" transform="translate(246,261)"/>
<path d="M0 0 C2.475 0.99 2.475 0.99 5 2 C4.37611108 5.61855575 3.8290723 6.1709277 1 9 C0.67 6.03 0.34 3.06 0 0 Z " fill="#2B7FB8" transform="translate(299,240)"/>
<path d="M0 0 C3.37503669 1.1858237 5.64722731 2.27573689 8 5 C5.03 4.505 5.03 4.505 2 4 C1.67 5.32 1.34 6.64 1 8 C0.67 5.36 0.34 2.72 0 0 Z " fill="#7CB1CF" transform="translate(238,206)"/>
<path d="M0 0 C1.32 0 2.64 0 4 0 C4.99 2.31 5.98 4.62 7 7 C4.13302508 5.71480435 2.02392288 4.42870746 0 2 C0 1.34 0 0.68 0 0 Z " fill="#5C9DC3" transform="translate(170,284)"/>
<path d="M0 0 C-3.4352048 2.29013653 -4.985331 2.17842973 -9 2 C-9 2.66 -9 3.32 -9 4 C-11.97 3.505 -11.97 3.505 -15 3 C-12.16163087 1.46417013 -9.52324478 0.51269491 -6.375 -0.1875 C-5.59898437 -0.36667969 -4.82296875 -0.54585938 -4.0234375 -0.73046875 C-2 -1 -2 -1 0 0 Z " fill="#75AFD3" transform="translate(227,278)"/>
<path d="M0 0 C0 2.64 0 5.28 0 8 C-0.99 7.67 -1.98 7.34 -3 7 C-4.1875 4.4375 -4.1875 4.4375 -5 2 C-1.125 0 -1.125 0 0 0 Z " fill="#1C77B5" transform="translate(237,227)"/>
<path d="M0 0 C1.23556641 0.01740234 1.23556641 0.01740234 2.49609375 0.03515625 C3.32238281 0.04417969 4.14867187 0.05320313 5 0.0625 C5.63808594 0.07410156 6.27617187 0.08570313 6.93359375 0.09765625 C5.94359375 1.58265625 5.94359375 1.58265625 4.93359375 3.09765625 C3.61359375 2.76765625 2.29359375 2.43765625 0.93359375 2.09765625 C0.93359375 2.75765625 0.93359375 3.41765625 0.93359375 4.09765625 C0.27359375 4.09765625 -0.38640625 4.09765625 -1.06640625 4.09765625 C-1.06640625 3.43765625 -1.06640625 2.77765625 -1.06640625 2.09765625 C-1.72640625 1.76765625 -2.38640625 1.43765625 -3.06640625 1.09765625 C-2.06640625 0.09765625 -2.06640625 0.09765625 0 0 Z " fill="#1267A2" transform="translate(229.06640625,226.90234375)"/>
<path d="M0 0 C0.33 0 0.66 0 1 0 C0.67 2.64 0.34 5.28 0 8 C-1.65 8 -3.3 8 -5 8 C-1.125 1.125 -1.125 1.125 0 0 Z " fill="#4991C0" transform="translate(302,220)"/>
<path d="M0 0 C0.66 0.33 1.32 0.66 2 1 C2.625 4.0625 2.625 4.0625 3 7 C2.34 7 1.68 7 1 7 C1 6.01 1 5.02 1 4 C0.01 4 -0.98 4 -2 4 C-2.33 5.32 -2.66 6.64 -3 8 C-3.36923077 3.44615385 -3.36923077 3.44615385 -1.5 1.1875 C-1.005 0.795625 -0.51 0.40375 0 0 Z " fill="#67A2C7" transform="translate(229,208)"/>
<path d="M0 0 C2.4375 0.6875 2.4375 0.6875 5 2 C5.6875 4.5 5.6875 4.5 6 7 C6.66 7.66 7.32 8.32 8 9 C7.01 9 6.02 9 5 9 C3.61328125 7.5390625 3.61328125 7.5390625 2.3125 5.625 C1.65701172 4.68527344 1.65701172 4.68527344 0.98828125 3.7265625 C0 2 0 2 0 0 Z " fill="#559EC9" transform="translate(218,260)"/>
<path d="M0 0 C3 1 3 1 5 3 C5.625 5.625 5.625 5.625 6 8 C5.01 8 4.02 8 3 8 C0 2.25 0 2.25 0 0 Z " fill="#4DBFDE" transform="translate(168,223)"/>
<path d="M0 0 C4.51478398 0.53115106 7.34666857 2.36620292 11 5 C10.34 5.66 9.68 6.32 9 7 C9 6.34 9 5.68 9 5 C8.21625 4.855625 7.4325 4.71125 6.625 4.5625 C4 4 4 4 2 3 C2 2.34 2 1.68 2 1 C1.34 0.67 0.68 0.34 0 0 Z " fill="#69A5CA" transform="translate(305,156)"/>
<path d="M0 0 C-1 2 -1 2 -4.3125 3.1875 C-7.75666263 3.94638329 -8.83008446 3.98666245 -12 3 C-10.3789897 2.30314502 -8.75303934 1.61777139 -7.125 0.9375 C-6.22007812 0.55464844 -5.31515625 0.17179688 -4.3828125 -0.22265625 C-2 -1 -2 -1 0 0 Z " fill="#73CBE3" transform="translate(212,140)"/>
<path d="M0 0 C1.67542976 0.28604898 3.34385343 0.61781233 5 1 C0.25 5.875 0.25 5.875 -2 7 C-1.125 1.125 -1.125 1.125 0 0 Z " fill="#47BFDE" transform="translate(295,284)"/>
<path d="M0 0 C0.99 0 1.98 0 3 0 C3 0.66 3 1.32 3 2 C2.01 2.66 1.02 3.32 0 4 C0 4.99 0 5.98 0 7 C-1.65 7 -3.3 7 -5 7 C-4.34 6.67 -3.68 6.34 -3 6 C-2.29788106 4.34795544 -1.63028587 2.68076231 -1 1 C-0.67 0.67 -0.34 0.34 0 0 Z " fill="#056BB2" transform="translate(175,277)"/>
<path d="M0 0 C0.33 0.66 0.66 1.32 1 2 C0.67 2.66 0.34 3.32 0 4 C-0.66 4 -1.32 4 -2 4 C-2.33 4.99 -2.66 5.98 -3 7 C-4.32 6.34 -5.64 5.68 -7 5 C-4.69 3.35 -2.38 1.7 0 0 Z " fill="#4CBEE0" transform="translate(281,271)"/>
<path d="M0 0 C0.66 0.33 1.32 0.66 2 1 C-0.25 3.5625 -0.25 3.5625 -3 6 C-4.32 5.67 -5.64 5.34 -7 5 C-4.69 3.35 -2.38 1.7 0 0 Z " fill="#589AC1" transform="translate(262,258)"/>
<path d="M0 0 C3.39417765 3.12621626 5.6062718 5.56541027 7 10 C5.68 9.67 4.36 9.34 3 9 C3 7.68 3 6.36 3 5 C2.34 5 1.68 5 1 5 C0.67 3.35 0.34 1.7 0 0 Z " fill="#11A5D3" transform="translate(194,253)"/>
<path d="M0 0 C0.66 0 1.32 0 2 0 C2 1.32 2 2.64 2 4 C2.99 4.33 3.98 4.66 5 5 C5 5.33 5 5.66 5 6 C2.69 6 0.38 6 -2 6 C-2 5.34 -2 4.68 -2 4 C-1.34 4 -0.68 4 0 4 C0 2.68 0 1.36 0 0 Z " fill="#0C6AAB" transform="translate(238,192)"/>
<path d="M0 0 C0 0.99 0 1.98 0 3 C-2.97 2.67 -5.94 2.34 -9 2 C-5.945634 -1.054366 -3.9532319 -1.22686507 0 0 Z " fill="#468FC0" transform="translate(257,168)"/>
<path d="M0 0 C0 0.66 0 1.32 0 2 C-2.97 2 -5.94 2 -9 2 C-9 1.34 -9 0.68 -9 0 C-3.375 -1.125 -3.375 -1.125 0 0 Z " fill="#10A4CF" transform="translate(257,299)"/>
<path d="M0 0 C2.625 -0.1875 2.625 -0.1875 5 0 C5.33 0.99 5.66 1.98 6 3 C3.36 3 0.72 3 -2 3 C-1.34 2.01 -0.68 1.02 0 0 Z " fill="#016EBA" transform="translate(189,283)"/>
<path d="M0 0 C0.66 0.33 1.32 0.66 2 1 C-0.25 3.5625 -0.25 3.5625 -3 6 C-4.32 5.67 -5.64 5.34 -7 5 C-4.69 3.35 -2.38 1.7 0 0 Z " fill="#64CAE4" transform="translate(272,277)"/>
<path d="M0 0 C0 3 0 3 -1.6875 5.0625 C-4.06073778 7.05088841 -6.08060173 8.02686724 -9 9 C-6 6 -3 3 0 0 Z " fill="#0B6AAB" transform="translate(285,241)"/>
<path d="M0 0 C0.66 0 1.32 0 2 0 C2 0.66 2 1.32 2 2 C2.99 2.33 3.98 2.66 5 3 C6.35439668 5.70879335 6.06501451 8.00933268 6 11 C4.41028035 8.61542052 3.13258407 6.3695876 1.875 3.8125 C1.52179688 3.09707031 1.16859375 2.38164062 0.8046875 1.64453125 C0.53914063 1.10183594 0.27359375 0.55914062 0 0 Z " fill="#64A3CA" transform="translate(307,169)"/>
<path d="M0 0 C0.66 0.33 1.32 0.66 2 1 C1.67 2.32 1.34 3.64 1 5 C-0.98 5.33 -2.96 5.66 -5 6 C-5.33 5.34 -5.66 4.68 -6 4 C-4.02 2.68 -2.04 1.36 0 0 Z " fill="#10A5D6" transform="translate(233,153)"/>
<path d="M0 0 C0.33 0.99 0.66 1.98 1 3 C0.01 3.66 -0.98 4.32 -2 5 C-2.66 4.34 -3.32 3.68 -4 3 C-6.06874034 2.3574765 -6.06874034 2.3574765 -8 2 C-2.25 0 -2.25 0 0 0 Z " fill="#55C4E5" transform="translate(250,291)"/>
<path d="M0 0 C0.99 0.33 1.98 0.66 3 1 C2.67 3.31 2.34 5.62 2 8 C1.01 8 0.02 8 -1 8 C-1.33 7.34 -1.66 6.68 -2 6 C-1.34 6 -0.68 6 0 6 C0 4.02 0 2.04 0 0 Z " fill="#29B8E4" transform="translate(205,267)"/>
<path d="M0 0 C-1.6454378 1.68762851 -3.31288577 3.3540349 -5 5 C-5.33 5 -5.66 5 -6 5 C-6 3.35 -6 1.7 -6 0 C-3.50907189 -1.24546405 -2.58919267 -0.7767578 0 0 Z " fill="#3A8BBF" transform="translate(290,259)"/>
<path d="M0 0 C0.99 0 1.98 0 3 0 C1.8141763 3.37503669 0.72426311 5.64722731 -2 8 C-2 6.35 -2 4.7 -2 3 C-1.34 3 -0.68 3 0 3 C0 2.01 0 1.02 0 0 Z " fill="#539AC6" transform="translate(315,224)"/>
<path d="M0 0 C3 1 3 1 4.25 3.3125 C5.04631835 6.16597407 4.8214856 7.24802325 4 10 C3.32845067 8.71086513 2.66291141 7.41859796 2 6.125 C1.62875 5.40570313 1.2575 4.68640625 0.875 3.9453125 C0 2 0 2 0 0 Z " fill="#54BDDE" transform="translate(163,213)"/>
<path d="M0 0 C1.2065625 0.0309375 1.2065625 0.0309375 2.4375 0.0625 C1.7775 2.0425 1.1175 4.0225 0.4375 6.0625 C-0.8825 4.4125 -2.2025 2.7625 -3.5625 1.0625 C-2.5625 0.0625 -2.5625 0.0625 0 0 Z " fill="#096CAE" transform="translate(250.5625,169.9375)"/>
<path d="M0 0 C3.875 1.75 3.875 1.75 5 4 C3.02 4.33 1.04 4.66 -1 5 C-1.33 4.01 -1.66 3.02 -2 2 C-1.34 2 -0.68 2 0 2 C0 1.34 0 0.68 0 0 Z " fill="#3E8DC2" transform="translate(316,162)"/>
<path d="M0 0 C0.33 0 0.66 0 1 0 C1 1.98 1 3.96 1 6 C-0.98 6.66 -2.96 7.32 -5 8 C-5 6.68 -5 5.36 -5 4 C-2.525 4.495 -2.525 4.495 0 5 C0 3.35 0 1.7 0 0 Z " fill="#79CFEA" transform="translate(230,145)"/>
<path d="M0 0 C2.31 0 4.62 0 7 0 C4.3144406 2.6855594 1.62378672 3.06049974 -2 4 C-2 3.34 -2 2.68 -2 2 C-1.34 2 -0.68 2 0 2 C0 1.34 0 0.68 0 0 Z " fill="#5595C2" transform="translate(245,285)"/>
<path d="M0 0 C-0.33 0.99 -0.66 1.98 -1 3 C-2.98 3.33 -4.96 3.66 -7 4 C-7 3.34 -7 2.68 -7 2 C-4.35261084 0.5393715 -3.10551666 0 0 0 Z " fill="#016DBA" transform="translate(239,264)"/>
<path d="M0 0 C0.33 0 0.66 0 1 0 C1.33 3.63 1.66 7.26 2 11 C1.34 11 0.68 11 0 11 C-0.84098656 6.98195309 -1.05404945 3.98196457 0 0 Z " fill="#76B1D4" transform="translate(271,231)"/>
<path d="M0 0 C0.33 1.32 0.66 2.64 1 4 C-1.375 5.5625 -1.375 5.5625 -4 7 C-4.66 6.67 -5.32 6.34 -6 6 C-4.02 4.02 -2.04 2.04 0 0 Z " fill="#0E69A7" transform="translate(292,234)"/>
<path d="M0 0 C0.66 0 1.32 0 2 0 C3.1577506 3.47325181 3.06866652 6.36067448 3 10 C0.70366176 6.55549263 0.45983515 4.06187717 0 0 Z " fill="#70CBE6" transform="translate(152,183)"/>
<path d="M0 0 C1.32 0 2.64 0 4 0 C4 0.66 4 1.32 4 2 C2.03533587 3.06775224 0.03144641 4.06553465 -2 5 C-2.66 4.67 -3.32 4.34 -4 4 C-3.67 3.34 -3.34 2.68 -3 2 C-2.01 2 -1.02 2 0 2 C0 1.34 0 0.68 0 0 Z " fill="#65C6E2" transform="translate(210,157)"/>
<path d="M0 0 C2.86724686 0.57344937 3.8614515 0.8614515 6 3 C5.34 3 4.68 3 4 3 C4 3.66 4 4.32 4 5 C3.34 5 2.68 5 2 5 C2 4.34 2 3.68 2 3 C1.34 3 0.68 3 0 3 C0 2.01 0 1.02 0 0 Z " fill="#046CAC" transform="translate(256,274)"/>
<path d="M0 0 C-5.625 3 -5.625 3 -9 3 C-9 2.34 -9 1.68 -9 1 C-5.57367167 -0.61798838 -3.61944899 -1.34053666 0 0 Z " fill="#62A0C7" transform="translate(240,268)"/>
<path d="M0 0 C1.9375 0.6875 1.9375 0.6875 4 2 C4.75 4.625 4.75 4.625 5 7 C3.29115995 5.37660195 1.62553283 3.70680947 0 2 C0 1.34 0 0.68 0 0 Z " fill="#48BBDD" transform="translate(190,257)"/>
<path d="M0 0 C0.66 0.33 1.32 0.66 2 1 C1.67 2.32 1.34 3.64 1 5 C-0.32 5.33 -1.64 5.66 -3 6 C-1.125 1.125 -1.125 1.125 0 0 Z " fill="#036EBB" transform="translate(277,250)"/>
<path d="M0 0 C2.15377564 2.62198774 3.40072174 4.64404172 4 8 C2.68 7.67 1.36 7.34 0 7 C0 4.69 0 2.38 0 0 Z " fill="#57C4E2" transform="translate(181,228)"/>
<path d="M0 0 C3.37462715 0.54723683 5.08235 1.0549 8 3 C5.69 3.33 3.38 3.66 1 4 C0.67 2.68 0.34 1.36 0 0 Z " fill="#4092C7" transform="translate(225,232)"/>
<path d="M0 0 C0.66 0.33 1.32 0.66 2 1 C1.01 1.66 0.02 2.32 -1 3 C-1.72382467 5.05925139 -1.72382467 5.05925139 -2 7 C-2.66 7 -3.32 7 -4 7 C-4 5.35 -4 3.7 -4 2 C-2.125 0.9375 -2.125 0.9375 0 0 Z " fill="#80CEE1" transform="translate(152,163)"/>
<path d="M0 0 C0 0.66 0 1.32 0 2 C-4.43076923 4.09230769 -4.43076923 4.09230769 -7.3125 3.625 C-7.869375 3.41875 -8.42625 3.2125 -9 3 C-3.375 0 -3.375 0 0 0 Z " fill="#63A4CB" transform="translate(269,161)"/>
<path d="M0 0 C-0.33 2.64 -0.66 5.28 -1 8 C-1.33 8 -1.66 8 -2 8 C-2 5.69 -2 3.38 -2 1 C-3.32 0.67 -4.64 0.34 -6 0 C-3.50907189 -1.24546405 -2.58919267 -0.7767578 0 0 Z " fill="#98C9E0" transform="translate(275,160)"/>
<path d="M0 0 C0 0.66 0 1.32 0 2 C-6.28571429 4.42857143 -6.28571429 4.42857143 -10 3 C-3.375 0 -3.375 0 0 0 Z " fill="#7AD1E9" transform="translate(176,154)"/>
</svg>
